<?xml version="1.0" encoding="utf-8"?>
<!-- Generator: Adobe Illustrator 16.0.0, SVG Export Plug-In . SVG Version: 6.00 Build 0)  -->
<!DOCTYPE svg PUBLIC "-//W3C//DTD SVG 1.1//EN" "http://www.w3.org/Graphics/SVG/1.1/DTD/svg11.dtd">
<svg version="1.1" id="Layer_1" xmlns="http://www.w3.org/2000/svg" xmlns:xlink="http://www.w3.org/1999/xlink" x="0px" y="0px"
	 width="835.016px" height="142.621px" viewBox="0 0 835.016 142.621" enable-background="new 0 0 835.016 142.621"
	 xml:space="preserve">
<g>
	<g>
		<path fill="#FFC90E" d="M51.842,46.289v12.799h13.756v14.117H51.842v44.529H34.056v-44.66h-9.169V59.087h9.169V46.682
			c0-4.929,2.061-10.257,5.508-14.25c2.969-3.445,8.365-7.546,17.206-7.546h10.924v15.558h-10.4
			C54.392,40.445,51.842,43.175,51.842,46.289z"/>
	</g>
	<g>
		<rect x="136.234" y="26.458" fill="#FFC90E" width="18.311" height="91.276"/>
	</g>
	<g>
		<rect x="163.743" y="57.525" fill="#FFC90E" width="18.311" height="60.209"/>
		<path fill="#FFC90E" d="M182.054,42.773c0,4.652-3.862,7.779-9.614,7.779c-4.218,0-6.356-2.074-7.258-3.312l-0.072-0.114
			c-1.189-2.036-1.366-4.094-1.366-5.141c0-3.936,2.972-7.909,9.614-7.909c4.152,0,6.237,2.13,7.125,3.439
			C181.848,39.261,182.054,41.554,182.054,42.773z"/>
	</g>
	<g>
		<path fill="#FFC90E" d="M253.447,85.083v32.65h-18.311V83.511c0-4.889-3.686-10.167-9.644-10.167h-2.75
			c-8.062,0-13.05,6.911-13.05,13.31v31.08h-18.311V59.097h13.088l1.525,3.159c5.145-3.222,11.221-4.731,18.973-4.731
			c11.039,0,17.792,5.136,21.514,9.443C250.844,72.014,253.447,78.786,253.447,85.083z"/>
	</g>
	<g>
		<path fill="#FF7F27" d="M405.877,82.594v35.14h-18.311V81.152c0-3.77-2.98-7.809-7.415-7.809h-1.571
			c-8.061,0-13.051,6.911-13.051,13.31v31.08h-18.307V26.458h18.307v33.901c4.189-1.881,8.92-2.834,14.098-2.834
			c10.127,0,16.361,4.696,19.807,8.634C403.467,70.773,405.877,76.918,405.877,82.594z"/>
	</g>
	<g>
		<path fill="#FF7F27" d="M468.93,68.048c-4.164-4.802-11.696-10.523-23.938-10.523c-12.708,0-20.436,5.521-24.681,10.151
			c-5.159,5.629-8.118,13.121-8.118,20.552v0.109c0,6.968,2.942,14.489,7.868,20.121c4.175,4.77,11.704,10.453,23.883,10.453
			c12.766,0,20.495-5.513,24.729-10.136c5.131-5.597,8.069-13.047,8.069-20.438v-0.109C476.743,81.234,473.823,73.691,468.93,68.048
			z M445.516,103.22h-1.943c-8.489-0.255-13.068-7.114-13.068-13.441v-3.125c0-6.427,5.189-13.31,12.917-13.31h1.946
			c8.487,0.258,13.068,7.046,13.068,13.31v3.125C458.436,96.245,453.496,103.22,445.516,103.22z"/>
	</g>
	<g>
		<rect x="484.11" y="26.458" fill="#FF7F27" width="18.311" height="91.276"/>
	</g>
	<g>
		<path fill="#FF7F27" d="M556.158,26.458v34.897c-4.551-2.421-9.997-3.83-15.013-3.83c-12.177,0-19.712,5.722-23.886,10.521
			c-4.926,5.662-7.867,13.205-7.867,20.183v0.109c0,6.968,2.941,14.489,7.87,20.121c4.171,4.77,11.7,10.453,23.883,10.453h1.571
			c4.98,0,11.666-1.094,16.254-4.093l2.352,2.915h12.623V26.458H556.158z M542.323,103.22c-8.61,0-14.622-5.526-14.622-13.441
			v-3.125c0-6.427,5.193-13.31,12.92-13.31h1.029c9.18,0.255,13.984,7.416,13.984,14.361v1.681
			C555.635,96.042,550.545,103.22,542.323,103.22z"/>
	</g>
	<g>
		<path fill="#FF7F27" d="M601.848,44.345c0,4.652-3.865,7.779-9.615,7.779c-4.217,0-6.355-2.074-7.258-3.312l-0.072-0.114
			c-1.189-2.036-1.365-4.093-1.365-5.141c0-3.936,2.973-7.91,9.613-7.91c4.152,0,6.238,2.131,7.125,3.439
			C601.641,40.83,601.848,43.125,601.848,44.345z"/>
		<rect x="583.537" y="59.097" fill="#FF7F27" width="18.311" height="58.637"/>
	</g>
	<g>
		<path fill="#FF7F27" d="M673.24,85.083v32.65H654.93V83.511c0-4.889-3.686-10.167-9.645-10.167h-2.748
			c-8.063,0-13.051,6.911-13.051,13.31v31.08h-18.311V59.097h13.088l1.525,3.159c5.145-3.222,11.221-4.731,18.973-4.731
			c11.039,0,17.793,5.136,21.514,9.443C670.637,72.014,673.24,78.786,673.24,85.083z"/>
	</g>
	<g>
		<path fill="#FF7F27" d="M730.932,59.097l-1.994,2.66c-4.229-2.63-9.852-4.231-15.012-4.231h-2.617
			c-12.178,0-19.709,5.722-23.887,10.521c-4.926,5.662-7.865,13.205-7.865,20.183v0.109c0,6.968,2.941,14.489,7.869,20.121
			c4.17,4.77,11.703,10.453,23.883,10.453h2.617c4.281,0,8.717-1.121,12.324-3.064c-0.586,5.801-4.66,11.346-11.143,11.346
			c-5.508,0-14.967-3.687-21.074-7.158l-3.887-1.943l-7.342,14.218l2.471,1.572c6.588,4.351,18,8.739,28.65,8.739
			c11.293,0,18.43-5.086,22.43-9.354c4.854-5.182,7.752-12.136,7.752-18.598V59.097H730.932z M713.01,103.22h-2.225
			c-7.729,0-12.922-6.948-12.922-13.441v-3.125c0-6.399,4.992-13.31,13.051-13.31h2.096c7.898,0,12.787,6.843,12.787,13.181v3.385
			C725.797,96.313,720.908,103.22,713.01,103.22z"/>
	</g>
	<g>
		<path fill="#FF7F27" d="M810.129,101.191c0,10.268-11.811,17.721-28.082,17.721c-8.107,0-15.594-1.601-21.078-4.507
			c-6.299-3.336-9.625-8.143-9.625-13.898v-2.782h17.783v2.782c0,4.092,6.818,5.543,12.656,5.543c2.602,0,11.086-0.35,11.086-4.858
			c0-3.063-1.518-4.052-8.535-5.581l-0.037-0.007c-1.801-0.442-3.67-0.879-5.475-1.3c-3.332-0.779-6.779-1.583-10.023-2.475
			c-11.902-3.098-17.455-8.568-17.455-17.209c0-10.419,10.557-17.151,26.902-17.151c8.402,0,15.533,1.6,20.629,4.625
			c5.477,3.253,8.371,8.018,8.371,13.778v2.897h-17.654v-2.897c0-1.37,0-5.543-11.082-5.543c-5.391,0-9.775,2.129-9.775,4.748
			c0,2.138,1.359,3.223,5.59,4.454c2.352,0.579,4.713,1.115,6.998,1.635c2.633,0.598,5.355,1.217,8.031,1.893
			c7.805,1.817,12.264,3.547,15.391,5.971C808.418,91.878,810.129,95.742,810.129,101.191z"/>
	</g>
	<path fill="#FFC90E" d="M121.71,68.049c-4.163-4.802-11.695-10.523-23.937-10.523c-12.709,0-20.436,5.521-24.681,10.151
		c-5.16,5.629-8.118,13.121-8.118,20.553v0.107c0,6.968,2.941,14.489,7.868,20.121c4.175,4.77,11.704,10.453,23.883,10.453
		c12.765,0,20.495-5.513,24.729-10.136c0.287-0.313,0.566-0.635,0.842-0.96l-13.371-10.452c-2.193,3.373-5.871,5.856-10.629,5.856
		h-1.943c-6.21-0.188-10.328-3.906-12.089-8.365h44.505c0.494-2.145,0.755-4.332,0.755-6.518V88.23
		C129.524,81.235,126.604,73.692,121.71,68.049z M84.322,81.601c1.881-4.53,6.193-8.256,11.879-8.256h1.947
		c6.193,0.187,10.305,3.854,12.074,8.256H84.322z"/>
	<path fill="#FFC90E" d="M316.499,68.049c-4.163-4.802-11.696-10.523-23.937-10.523c-12.709,0-20.436,5.521-24.682,10.151
		c-5.16,5.629-8.118,13.121-8.118,20.553v0.107c0,6.968,2.942,14.489,7.868,20.121c4.175,4.77,11.705,10.453,23.883,10.453
		c12.766,0,20.496-5.513,24.73-10.136c0.287-0.313,0.566-0.635,0.842-0.96l-13.371-10.452c-2.193,3.373-5.871,5.856-10.629,5.856
		h-1.943c-6.211-0.188-10.328-3.906-12.09-8.365h44.506c0.494-2.145,0.755-4.332,0.755-6.518V88.23
		C324.313,81.235,321.393,73.692,316.499,68.049z M279.109,81.601c1.881-4.53,6.194-8.256,11.881-8.256h1.947
		c6.193,0.187,10.305,3.854,12.074,8.256H279.109z"/>
</g>
</svg>
